<svg xmlns="http://www.w3.org/2000/svg" xmlns:xlink="http://www.w3.org/1999/xlink" contentStyleType="text/css" data-diagram-type="DESCRIPTION" height="709px" preserveAspectRatio="none" style="width:1059px;height:709px;background:#FFFFFF;" version="1.1" viewBox="0 0 1059 709" width="1059px" zoomAndPan="magnify"><defs/><g><!--cluster EDM--><g class="cluster" data-entity="EDM" data-source-line="8" data-uid="ent0002" id="cluster_EDM"><rect fill="#F5F7FB" height="314.08" rx="5" ry="5" style="stroke:#3B73B9;stroke-width:1;" width="635" x="7" y="7"/><text fill="#000000" font-family="sans-serif" font-size="14" font-weight="bold" lengthAdjust="spacing" textLength="146.5488" x="251.2256" y="21.9951">EDM (Governan&#231;a)</text><text fill="#000000" font-family="sans-serif" font-size="14" font-weight="bold" lengthAdjust="spacing" textLength="215.2705" x="216.8647" y="38.292">Evaluate &#8226; Direct &#8226; Monitor</text></g><!--entity EDM01--><g class="entity" data-entity="EDM01" data-source-line="9" data-uid="ent0003" id="entity_EDM01"><rect fill="#F5F7FB" height="101.4844" rx="5" ry="5" style="stroke:#3B73B9;stroke-width:0.5;" width="215.0498" x="31.48" y="66"/><text fill="#000000" font-family="sans-serif" font-size="14" lengthAdjust="spacing" textLength="49.5195" x="41.48" y="88.9951">EDM01</text><text fill="#000000" font-family="sans-serif" font-size="14" lengthAdjust="spacing" textLength="167.6719" x="41.48" y="105.292">Governance Framework</text><text fill="#000000" font-family="sans-serif" font-size="14" lengthAdjust="spacing" textLength="67.6895" x="41.48" y="121.5889">(Processo</text><text fill="#000000" font-family="sans-serif" font-size="14" lengthAdjust="spacing" textLength="170.3447" x="41.48" y="137.8857">Garantir Manuten&#231;&#227;o do</text><text fill="#000000" font-family="sans-serif" font-size="14" lengthAdjust="spacing" textLength="195.0498" x="41.48" y="154.1826">Framework de Governan&#231;a)</text></g><!--entity EDM02--><g class="entity" data-entity="EDM02" data-source-line="10" data-uid="ent0004" id="entity_EDM02"><rect fill="#F5F7FB" height="52.5938" rx="5" ry="5" style="stroke:#3B73B9;stroke-width:0.5;" width="139.8682" x="281.07" y="90.45"/><text fill="#000000" font-family="sans-serif" font-size="14" lengthAdjust="spacing" textLength="49.5195" x="291.07" y="113.4451">EDM02</text><text fill="#000000" font-family="sans-serif" font-size="14" lengthAdjust="spacing" textLength="119.8682" x="291.07" y="129.742">Benefits Delivery</text></g><!--entity EDM03--><g class="entity" data-entity="EDM03" data-source-line="11" data-uid="ent0005" id="entity_EDM03"><rect fill="#F5F7FB" height="52.5938" rx="5" ry="5" style="stroke:#3B73B9;stroke-width:0.5;" width="143.0264" x="455.49" y="90.45"/><text fill="#000000" font-family="sans-serif" font-size="14" lengthAdjust="spacing" textLength="49.5195" x="465.49" y="113.4451">EDM03</text><text fill="#000000" font-family="sans-serif" font-size="14" lengthAdjust="spacing" textLength="123.0264" x="465.49" y="129.742">Risk Optimization</text></g><!--entity EDM04--><g class="entity" data-entity="EDM04" data-source-line="12" data-uid="ent0006" id="entity_EDM04"><rect fill="#F5F7FB" height="52.5938" rx="5" ry="5" style="stroke:#3B73B9;stroke-width:0.5;" width="179.1475" x="49.43" y="244.48"/><text fill="#000000" font-family="sans-serif" font-size="14" lengthAdjust="spacing" textLength="49.5195" x="59.43" y="267.4751">EDM04</text><text fill="#000000" font-family="sans-serif" font-size="14" lengthAdjust="spacing" textLength="159.1475" x="59.43" y="283.772">Resource Optimization</text></g><!--entity EDM05--><g class="entity" data-entity="EDM05" data-source-line="13" data-uid="ent0007" id="entity_EDM05"><rect fill="#F5F7FB" height="52.5938" rx="5" ry="5" style="stroke:#3B73B9;stroke-width:0.5;" width="204.4541" x="263.77" y="244.48"/><text fill="#000000" font-family="sans-serif" font-size="14" lengthAdjust="spacing" textLength="49.5195" x="273.77" y="267.4751">EDM05</text><text fill="#000000" font-family="sans-serif" font-size="14" lengthAdjust="spacing" textLength="184.4541" x="273.77" y="283.772">Stakeholder Transparency</text></g><!--entity APO--><g class="entity" data-entity="APO" data-source-line="16" data-uid="ent0008" id="entity_APO"><rect fill="#F5F7FB" height="52.5938" rx="5" ry="5" style="stroke:#3B73B9;stroke-width:0.5;" width="182.1826" x="766.91" y="244.48"/><text fill="#000000" font-family="sans-serif" font-size="14" lengthAdjust="spacing" textLength="29.0391" x="776.91" y="267.4751">APO</text><text fill="#000000" font-family="sans-serif" font-size="14" lengthAdjust="spacing" textLength="162.1826" x="776.91" y="283.772">Align &#8226; Plan &#8226; Organize</text></g><!--entity BAI--><g class="entity" data-entity="BAI" data-source-line="17" data-uid="ent0009" id="entity_BAI"><rect fill="#F5F7FB" height="52.5938" rx="5" ry="5" style="stroke:#3B73B9;stroke-width:0.5;" width="218.5225" x="821.74" y="392.08"/><text fill="#000000" font-family="sans-serif" font-size="14" lengthAdjust="spacing" textLength="23.3105" x="831.74" y="415.0751">BAI</text><text fill="#000000" font-family="sans-serif" font-size="14" lengthAdjust="spacing" textLength="198.5225" x="831.74" y="431.372">Build &#8226; Acquire &#8226; Implement</text></g><!--entity DSS--><g class="entity" data-entity="DSS" data-source-line="18" data-uid="ent0010" id="entity_DSS"><rect fill="#F5F7FB" height="52.5938" rx="5" ry="5" style="stroke:#3B73B9;stroke-width:0.5;" width="211.2285" x="759.39" y="521.67"/><text fill="#000000" font-family="sans-serif" font-size="14" lengthAdjust="spacing" textLength="28.5537" x="769.39" y="544.6651">DSS</text><text fill="#000000" font-family="sans-serif" font-size="14" lengthAdjust="spacing" textLength="191.2285" x="769.39" y="560.962">Deliver &#8226; Service &#8226; Support</text></g><!--entity MEA--><g class="entity" data-entity="MEA" data-source-line="19" data-uid="ent0011" id="entity_MEA"><rect fill="#F5F7FB" height="52.5938" rx="5" ry="5" style="stroke:#3B73B9;stroke-width:0.5;" width="216.0547" x="561.97" y="651.27"/><text fill="#000000" font-family="sans-serif" font-size="14" lengthAdjust="spacing" textLength="30.502" x="571.97" y="674.2651">MEA</text><text fill="#000000" font-family="sans-serif" font-size="14" lengthAdjust="spacing" textLength="196.0547" x="571.97" y="690.562">Monitor &#8226; Evaluate &#8226; Assess</text></g><!--link EDM to APO--><g class="link" data-entity-1="EDM" data-entity-2="APO" data-source-line="21" data-uid="lnk12" id="link_EDM_APO"><path d="M642.1296,123.2594 C642.2578,123.3465 642.3874,123.4344 642.5184,123.5233 C643.0423,123.8789 643.5881,124.2494 644.1551,124.6342 C645.2891,125.404 646.508,126.2313 647.8067,127.1128 C650.404,128.8758 653.3204,130.8554 656.5145,133.0234 C669.2909,141.6956 686.5106,153.3838 705.5288,166.2925 C743.565,192.11 783.8305,219.4405 815.0955,240.6605" fill="none" id="EDM-to-APO" style="stroke:#181818;stroke-width:1;"/><polygon fill="#181818" points="820.06,244.03,814.8595,235.6661,815.9229,241.2221,810.3669,242.2854,820.06,244.03" style="stroke:#181818;stroke-width:1;"/><text fill="#000000" font-family="sans-serif" font-size="13" lengthAdjust="spacing" textLength="61.8833" x="773" y="210.5469">Direciona</text></g><!--link APO to BAI--><g class="link" data-entity-1="APO" data-entity-2="BAI" data-source-line="22" data-uid="lnk13" id="link_APO_BAI"><path d="M870.88,297.48 C884.23,324.09 902.2602,360.0567 915.5602,386.5767" fill="none" id="APO-to-BAI" style="stroke:#181818;stroke-width:1;"/><polygon fill="#181818" points="918.25,391.94,917.7909,382.1018,916.0085,387.4706,910.6398,385.6882,918.25,391.94" style="stroke:#181818;stroke-width:1;"/><text fill="#000000" font-family="sans-serif" font-size="13" lengthAdjust="spacing" textLength="111.8457" x="904" y="358.1469">Define e viabiliza</text></g><!--link BAI to DSS--><g class="link" data-entity-1="BAI" data-entity-2="DSS" data-source-line="23" data-uid="lnk14" id="link_BAI_DSS"><path d="M917.8,444.89 C906.29,467.14 892.4378,493.9313 880.9278,516.1713" fill="none" id="BAI-to-DSS" style="stroke:#181818;stroke-width:1;"/><polygon fill="#181818" points="878.17,521.5,885.8591,515.3455,880.4681,517.0594,878.7542,511.6685,878.17,521.5" style="stroke:#181818;stroke-width:1;"/><text fill="#000000" font-family="sans-serif" font-size="13" lengthAdjust="spacing" textLength="149.4873" x="902" y="487.7369">Entrega para opera&#231;&#227;o</text></g><!--link DSS to MEA--><g class="link" data-entity-1="DSS" data-entity-2="MEA" data-source-line="24" data-uid="lnk15" id="link_DSS_MEA"><path d="M826.01,574.48 C792.11,596.66 748.2603,625.3542 714.2803,647.5942" fill="none" id="DSS-to-MEA" style="stroke:#181818;stroke-width:1;"/><polygon fill="#181818" points="709.26,650.88,718.981,649.2982,713.4436,648.1418,714.5999,642.6044,709.26,650.88" style="stroke:#181818;stroke-width:1;"/><text fill="#000000" font-family="sans-serif" font-size="13" lengthAdjust="spacing" textLength="214.2207" x="780" y="617.3369">Gera desempenho/conformidade</text></g><!--link MEA to EDM--><g class="link" data-entity-1="MEA" data-entity-2="EDM" data-source-line="25" data-uid="lnk16" id="link_MEA_EDM"><path d="M660.66,651.05 C652.19,625.56 641,585.09 641,548.97 C641,479.1725 641,426.8244 641,387.5633 C641,367.9327 641,351.5739 641,337.9416 C641,334.5335 641,331.2959 641,328.2201 C641,326.6822 641,325.1847 641,323.7267 C641,322.9977 641,328.2786 641,327.5691" fill="none" id="MEA-to-EDM" style="stroke:#181818;stroke-width:1;"/><polygon fill="#181818" points="641,321.5691,637,330.5691,641,326.5691,645,330.5691,641,321.5691" style="stroke:#181818;stroke-width:1;"/><text fill="#000000" font-family="sans-serif" font-size="13" lengthAdjust="spacing" textLength="144.917" x="642" y="422.9469">Reporta/retroalimenta</text></g><!--SRC=[RPFDRXen4CVlVefHSaaFKI04HSsXqcxuK0u813tknTaTY8Ltl1rxgPggKf-bFVH1yYPzaeuD0HBAQPZv_JsVwzU66iswXaTThbViMghkdNKCvylqKtvFC9P1qyeYV5S0-Nj-r1_TZl8OSLmXxxoz_BQNVnJlV8io8KEtetueTNZlR3YOmCNORP19qyiV_Q6WuKRRLWU4lpz_mS14E9aJHoOuFWFj8SfYBMzVwdGBUdshH1X9xVZLyHeAkfYnAz5x9_POcg9W62QQse2IzkMtWog63f8AuRYirwoTxcdMwu9o95oQu660reZgsvw_FkLx1SsDNyEq2QOsppeOHtk-TyhV28_UjImz_LTpSwhf5xG8UerFpifAuBDqx6MPIEMXjFwxNMIpQK6PDIjAyvvPlJMclD9adZ491JhMvDc3TDyQMoKqAx-qih5aFzIDnHef99s0nxh1Ob7GRbY9NY1lJBbLBjgcSRpL2NYicmopWdQNaDWtrv9vBpjEEW6LYcToUVaf5WrtsrkIkMaL_qU_51NziZf2GDWO_MYiJ5V5G0Gakm132emh3V5h0DSWwtGoAaOZ9Rc46ejVpiPZtI0zkQlIqT9nRIfTeOf8H6D5Tp37s9- -OWpij3LnIleV]--></g></svg>